<?xml version="1.0" encoding="iso-8859-1"?>
<!-- Uploaded to: SVG Repo, www.svgrepo.com, Generator: SVG Repo Mixer Tools -->
<svg version="1.1" id="Layer_1" xmlns="http://www.w3.org/2000/svg" xmlns:xlink="http://www.w3.org/1999/xlink" 
	 viewBox="0 0 512 512" xml:space="preserve">
<rect x="251.366" y="428.628" style="fill:#3E3D43;" width="34.847" height="46.959"/>
<rect x="251.366" y="428.628" style="fill:#2E2E30;" width="34.847" height="23.479"/>
<g>
	<rect x="127.647" y="198.59" style="fill:#F7AFD4;" width="282.278" height="99.664"/>
	<rect x="168.84" y="110.913" style="fill:#F7AFD4;" width="199.903" height="87.879"/>
</g>
<g>
	<rect x="127.647" y="276.36" style="fill:#F58FBF;" width="282.278" height="21.898"/>
	<rect x="168.84" y="177.817" style="fill:#F58FBF;" width="199.903" height="20.974"/>
</g>
<rect x="86.465" y="298.264" style="fill:#F7AFD4;" width="364.653" height="105.259"/>
<rect x="86.465" y="380.194" style="fill:#F58FBF;" width="364.33" height="23.338"/>
<g>
	<rect x="63.894" y="403.522" style="fill:#77767E;" width="409.784" height="25.101"/>
	<rect x="208.568" y="475.586" style="fill:#77767E;" width="120.427" height="28.842"/>
</g>
<path style="fill:#C60024;" d="M326.558,43.227c2.002-18.225-11.71-34.463-30.045-34.642c-12.035-0.117-21.226,6.599-27.726,16.574
	c-6.414-9.974-15.78-16.749-27.879-16.573c-18.186,0.266-31.763,16.608-29.902,34.7c0.601,5.839,2.543,9.549,4.127,12.76
	c7.732,15.664,52.366,52.782,53.627,53.829c0.017,0.014,0.037,0.014,0.055,0c1.268-1.047,46.256-38.271,53.627-53.829
	C323.961,52.845,325.935,48.906,326.558,43.227z"/>
<g>
	<path style="fill:#FFFFFF;" d="M235.48,110.897c0,18.404-14.919,33.323-33.323,33.323s-33.323-14.919-33.323-33.323H235.48z"/>
	<path style="fill:#FFFFFF;" d="M302.124,110.897c0,18.404-14.919,33.323-33.323,33.323s-33.323-14.919-33.323-33.323H302.124z"/>
	<path style="fill:#FFFFFF;" d="M368.77,110.897c0,18.404-14.919,33.323-33.323,33.323c-18.404,0-33.323-14.919-33.323-33.323
		H368.77z"/>
	<path style="fill:#FFFFFF;" d="M198.251,198.594c0,19.497-15.804,35.301-35.301,35.301s-35.301-15.805-35.301-35.301
		L198.251,198.594L198.251,198.594z"/>
	<path style="fill:#FFFFFF;" d="M268.854,198.594c0,19.497-15.805,35.301-35.301,35.301s-35.301-15.805-35.301-35.301
		L268.854,198.594L268.854,198.594z"/>
	<path style="fill:#FFFFFF;" d="M339.457,198.594c0,19.497-15.805,35.301-35.301,35.301c-19.496,0-35.301-15.805-35.301-35.301
		L339.457,198.594L339.457,198.594z"/>
	<path style="fill:#FFFFFF;" d="M410.059,198.594c0,19.497-15.805,35.301-35.301,35.301c-19.497,0-35.301-15.805-35.301-35.301
		L410.059,198.594L410.059,198.594z"/>
	<path style="fill:#FFFFFF;" d="M159.329,298.262c0,20.122-16.311,36.434-36.434,36.434s-36.434-16.311-36.434-36.434H159.329z"/>
	<path style="fill:#FFFFFF;" d="M232.196,298.262c0,20.122-16.311,36.434-36.434,36.434s-36.434-16.311-36.434-36.434H232.196z"/>
	<path style="fill:#FFFFFF;" d="M305.063,298.262c0,20.122-16.311,36.434-36.434,36.434c-20.122,0-36.434-16.311-36.434-36.434
		H305.063z"/>
	<path style="fill:#FFFFFF;" d="M377.93,298.262c0,20.122-16.311,36.434-36.434,36.434c-20.122,0-36.434-16.311-36.434-36.434
		H377.93z"/>
	<path style="fill:#FFFFFF;" d="M450.798,298.262c0,20.122-16.311,36.434-36.434,36.434c-20.122,0-36.434-16.311-36.434-36.434
		H450.798z"/>
</g>
<path d="M481.255,436.2V395.95h-22.569V290.688h-0.314H417.5v-88.865c0.08-1.067,0.134-2.141,0.134-3.229v-7.574H417.5h-41.186
	v-78.918c0.012-0.401,0.03-0.801,0.03-1.205v-7.574h-66.645H294.55h-7.545c14.987-13.116,36.767-33.404,42.281-45.041l0.211-0.444
	c1.627-3.422,3.855-8.108,4.589-14.794c1.212-11.036-2.279-22.082-9.579-30.306c-7.195-8.107-17.11-12.629-27.921-12.734
	c-10.592-0.132-20.067,4.007-27.797,11.988c-7.746-7.946-17.431-12.163-27.993-11.986c-10.64,0.155-20.434,4.666-27.579,12.701
	c-7.33,8.244-10.882,19.304-9.746,30.348c0.714,6.944,2.997,11.556,4.665,14.923l0.206,0.415
	c5.698,11.542,27.642,32.009,42.318,44.932h-7.606h-15.148h-66.645v0.015v7.559v80.123h-41.186v7.574v92.094H78.888v7.574v97.688
	H56.319V436.2h187.47v31.811h-42.791V512h135.578v-43.99h-42.791V436.2L481.255,436.2L481.255,436.2z M221.925,51.685l-0.213-0.431
	c-1.408-2.843-2.737-5.528-3.172-9.752c-0.702-6.828,1.485-13.654,5.998-18.731c4.288-4.822,10.141-7.529,16.481-7.62
	c0.117-0.001,0.234-0.002,0.351-0.002c8.377,0,15.457,4.405,21.046,13.098l6.329,9.843l6.388-9.804
	c5.733-8.798,12.933-13.186,21.306-13.135c6.476,0.064,12.421,2.777,16.74,7.643c4.464,5.029,6.596,11.808,5.85,18.599
	c-0.455,4.144-1.856,7.091-3.212,9.942l-0.219,0.463c-4.501,9.5-28.857,32.026-46.798,47.211
	C250.973,83.846,226.676,61.311,221.925,51.685z M442.215,305.836c-3.335,12.252-14.557,21.285-27.851,21.285
	c-13.294,0-24.517-9.033-27.851-21.285H417.5H442.215z M401.434,206.168c-3.303,11.619-14.012,20.154-26.677,20.154
	c-12.591,0-23.241-8.439-26.611-19.956h28.166v-0.197L401.434,206.168L401.434,206.168z M260.163,206.365
	c-3.369,11.517-14.02,19.956-26.611,19.956s-23.242-8.439-26.611-19.956H260.163z M330.766,206.365
	c-3.369,11.517-14.02,19.956-26.611,19.956c-12.591,0-23.242-8.439-26.611-19.956H330.766z M226.764,118.486
	c-3.246,10.507-13.049,18.159-24.606,18.159s-21.361-7.654-24.606-18.159H226.764z M269.062,118.486h24.347
	c-3.246,10.507-13.048,18.159-24.606,18.159s-21.361-7.654-24.606-18.159h24.356 M360.053,118.486
	c-3.246,10.507-13.049,18.159-24.606,18.159c-11.558,0-21.361-7.654-24.606-18.159H360.053z M176.409,142.64
	c7.036,5.718,15.996,9.153,25.749,9.153c13.736,0,25.902-6.815,33.323-17.231c7.421,10.418,19.586,17.231,33.323,17.231
	c13.736,0,25.902-6.815,33.323-17.231c7.421,10.418,19.586,17.231,33.323,17.231c9.737,0,18.687-3.426,25.717-9.129v48.355h-14.134
	h-15.148h-55.455H261.28h-55.455h-15.148h-14.268L176.409,142.64L176.409,142.64z M161.261,206.168v0.197h28.301
	c-3.369,11.517-14.02,19.956-26.611,19.956c-12.664,0-23.372-8.534-26.677-20.154h24.987V206.168z M135.222,231.259
	c7.482,6.36,17.161,10.211,27.728,10.211c14.627,0,27.56-7.367,35.302-18.581c7.742,11.214,20.675,18.581,35.302,18.581
	c14.627,0,27.559-7.367,35.301-18.581c7.742,11.214,20.675,18.581,35.302,18.581s27.56-7.367,35.302-18.581
	c7.742,11.214,20.674,18.581,35.301,18.581c10.503,0,20.131-3.802,27.594-10.095v59.313h-16.847h-15.148H312.64h-15.148h-57.719
	h-15.148h-57.719h-15.148h-16.534v-59.429H135.222z M369.348,305.836c-3.335,12.252-14.557,21.285-27.851,21.285
	s-24.517-9.033-27.851-21.285H369.348z M296.481,305.836c-3.335,12.252-14.557,21.285-27.851,21.285
	c-13.294,0-24.517-9.033-27.851-21.285H296.481z M223.614,305.836c-3.335,12.252-14.557,21.285-27.851,21.285
	s-24.517-9.033-27.851-21.285H223.614z M120.074,305.836h30.673c-3.335,12.252-14.557,21.285-27.851,21.285
	c-13.294,0-24.517-9.033-27.851-21.285H120.074z M94.036,331.442c7.733,6.735,17.824,10.827,28.86,10.827
	c15.137,0,28.512-7.683,36.434-19.352c7.922,11.669,21.297,19.352,36.433,19.352c15.137,0,28.512-7.683,36.434-19.352
	c7.922,11.669,21.297,19.352,36.434,19.352s28.512-7.683,36.434-19.352c7.922,11.669,21.297,19.352,36.433,19.352
	c15.137,0,28.512-7.683,36.434-19.352c7.922,11.669,21.297,19.352,36.434,19.352c11.184,0,21.401-4.201,29.174-11.098v64.779H94.036
	V331.442z M71.467,421.052v-9.953h7.421h379.797h7.421v9.953H293.785h-49.996H71.467z M321.428,483.158v13.694H216.146v-13.694
	h27.643h49.996H321.428z M278.637,468.01h-19.699V436.2h19.699V468.01z"/>
<g>
	<polygon style="fill:#D80029;" points="477.759,157.954 459.451,139.644 470.161,128.933 477.759,136.53 485.279,129.012 
		495.99,139.723 	"/>
	<polygon style="fill:#D80029;" points="122.934,77.433 104.626,59.124 115.337,48.413 122.934,56.011 130.455,48.491 
		141.166,59.203 	"/>
	<polygon style="fill:#D80029;" points="34.319,265.617 16.011,247.307 26.722,236.595 34.319,244.193 41.839,236.674 
		52.551,247.385 	"/>
	<polygon style="fill:#D80029;" points="390.885,479.212 372.575,460.903 383.286,450.191 390.885,457.79 398.404,450.27 
		409.115,460.981 	"/>
</g>
</svg>